SplineFontDB: 3.2
FontName: UnicodiaEgypFixupRegular
FullName: UnicodiaEgypFixupRegular
FamilyName: UnicodiaEgypFixup
Weight: Regular
Copyright: Copyright 2022 The Noto Project Authors (https://github.com/notofonts/egyptian-hieroglyphs)
Version: 2.1
ItalicAngle: 0
UnderlinePosition: -100
UnderlineWidth: 50
Ascent: 800
Descent: 200
InvalidEm: 1
UFOAscent: 1001
UFODescent: -138
LayerCount: 2
Layer: 0 0 "+BBcEMAQ0BD0EOAQ5 +BD8EOwQwBD0A" 1
Layer: 1 0 "public.default" 0 "glyphs"
StyleMap: 0x0040
FSType: 0
OS2Version: 0
OS2_WeightWidthSlopeOnly: 0
OS2_UseTypoMetrics: 0
CreationTime: 1698529057
ModificationTime: 1708460663
PfmFamily: 17
TTFWeight: 400
TTFWidth: 5
LineGap: 0
VLineGap: 0
Panose: 2 11 5 2 4 5 4 2 2 4
OS2TypoAscent: 1324
OS2TypoAOffset: 0
OS2TypoDescent: -326
OS2TypoDOffset: 0
OS2TypoLinegap: 0
OS2WinAscent: 1324
OS2WinAOffset: 0
OS2WinDescent: 326
OS2WinDOffset: 0
HheadAscent: 1324
HheadAOffset: 0
HheadDescent: -326
HheadDOffset: 0
OS2CapHeight: 900
OS2XHeight: 536
OS2Vendor: 'GOOG'
OS2CodePages: 00000001.00000000
OS2UnicodeRanges: 80000003.02002000.00000000.00000000
MarkAttachClasses: 1
DEI: 91125
LangName: 1033 "Copyright 2022 The Noto Project Authors (https://github.com/notofonts/egyptian-hieroglyphs)" "" "" "" "" "Version 2.001" "" "Noto is a trademark of Google Inc." "Monotype Imaging Inc." "Monotype Design Team" "Designed by Monotype design team." "http://www.google.com/get/noto/" "http://www.monotype.com/studio" "This Font Software is licensed under the SIL Open Font License, Version 1.1. This license is available with a FAQ at: https://scripts.sil.org/OFL" "https://scripts.sil.org/OFL"
Encoding: UnicodeFull
Compacted: 1
UnicodeInterp: none
NameList: AGL For New Fonts
DisplaySize: -48
AntiAlias: 1
FitToEm: 0
WinInfo: 0 33 14
BeginPrivate: 4
BlueValues 33 [-15 0 536 551 900 915 1001 1016]
OtherBlues 11 [-153 -138]
StemSnapH 7 [19 51]
StemSnapV 7 [19 51]
EndPrivate
Grid
46.5 1300 m 1
 46.5 -700 l 1025
EndSplineSet

StartChar: .notdef
Encoding: 1114112 -1 0
GlifName: _notdef
Width: 600
VWidth: 0
Flags: W
LayerCount: 2
Fore
SplineSet
94 0 m 257
 505 0 l 257
 505 714 l 257
 94 714 l 257
 94 0 l 257
145 51 m 257
 145 663 l 257
 454 663 l 257
 454 51 l 257
 145 51 l 257
EndSplineSet
EndChar

StartChar: u133FA
Encoding: 78842 78842 3
GlifName: u133F_A_
Width: 117
VWidth: 0
Flags: W
HStem: 0 21G<49 68>
VStem: 49 19<0 416>
LayerCount: 2
Fore
SplineSet
49 0 m 257
 49 416 l 261
 68 416 l 257
 68 0 l 257
 49 0 l 257
EndSplineSet
EndChar

StartChar: u133FB
Encoding: 78843 78843 4
GlifName: u133F_B_
Width: 274
VWidth: 0
Flags: W
HStem: 0 21G<49 68 206 225>
VStem: 49 19<0 416> 206 19<0 416>
LayerCount: 2
Fore
SplineSet
206 0 m 257
 206 416 l 257
 225 416 l 257
 225 0 l 257
 206 0 l 257
49 0 m 257
 49 416 l 257
 68 416 l 257
 68 0 l 257
 49 0 l 257
EndSplineSet
EndChar

StartChar: u133FC
Encoding: 78844 78844 5
GlifName: u133F_C_
Width: 431
VWidth: 0
Flags: W
HStem: 0 21G<49 68 206 225 362 382>
VStem: 49 19<0 416> 206 19<0 416> 362 20<0 416>
CounterMasks: 1 70
LayerCount: 2
Fore
SplineSet
362 0 m 257
 362 416 l 257
 382 416 l 257
 382 0 l 257
 362 0 l 257
49 0 m 257
 49 416 l 257
 68 416 l 257
 68 0 l 257
 49 0 l 257
206 0 m 257
 206 416 l 257
 225 416 l 257
 225 0 l 257
 206 0 l 257
EndSplineSet
EndChar

StartChar: u133FD
Encoding: 78845 78845 6
GlifName: u133F_D_
Width: 587
VWidth: 0
Flags: W
HStem: 0 21G<49 68 206 225 362 382 519 539>
VStem: 49 19<0 416> 206 19<0 416> 362 20<0 416> 519 20<0 416>
CounterMasks: 1 78
LayerCount: 2
Fore
SplineSet
519 0 m 257
 519 416 l 257
 539 416 l 257
 539 0 l 257
 519 0 l 257
49 0 m 257
 49 416 l 257
 68 416 l 257
 68 0 l 257
 49 0 l 257
206 0 m 257
 206 416 l 257
 225 416 l 257
 225 0 l 257
 206 0 l 257
362 0 m 257
 362 416 l 257
 382 416 l 257
 382 0 l 257
 362 0 l 257
EndSplineSet
EndChar

StartChar: u133FE
Encoding: 78846 78846 7
GlifName: u133F_E_
Width: 431
VWidth: 0
Flags: W
HStem: 0 21G<128 147 285 304>
VStem: 49 19<527 943> 128 19<0 416> 206 19<527 943> 285 19<0 416> 362 20<527 943>
CounterMasks: 1 54
LayerCount: 2
Fore
SplineSet
362 527 m 257
 362 943 l 257
 382 943 l 257
 382 527 l 257
 362 527 l 257
128 0 m 257
 128 416 l 257
 147 416 l 257
 147 0 l 257
 128 0 l 257
285 0 m 257
 285 416 l 257
 304 416 l 257
 304 0 l 257
 285 0 l 257
49 527 m 257
 49 943 l 257
 68 943 l 257
 68 527 l 257
 49 527 l 257
206 527 m 257
 206 943 l 257
 225 943 l 257
 225 527 l 257
 206 527 l 257
EndSplineSet
EndChar

StartChar: u133FF
Encoding: 78847 78847 8
GlifName: u133F_F_
Width: 431
VWidth: 0
Flags: W
HStem: 0 21G<49 68 206 225 362 382>
VStem: 49 19<0 416 527 943> 206 19<0 416 527 943> 362 20<0 416 527 943>
CounterMasks: 1 70
LayerCount: 2
Fore
SplineSet
362 527 m 257
 362 943 l 257
 382 943 l 257
 382 527 l 257
 362 527 l 257
49 0 m 257
 49 416 l 257
 68 416 l 257
 68 0 l 257
 49 0 l 257
206 0 m 257
 206 416 l 257
 225 416 l 257
 225 0 l 257
 206 0 l 257
362 0 m 257
 362 416 l 257
 382 416 l 257
 382 0 l 257
 362 0 l 257
49 527 m 257
 49 943 l 257
 68 943 l 257
 68 527 l 257
 49 527 l 257
206 527 m 257
 206 943 l 257
 225 943 l 257
 225 527 l 257
 206 527 l 257
EndSplineSet
EndChar

StartChar: u13400
Encoding: 78848 78848 9
GlifName: u13400
Width: 587
VWidth: 0
Flags: W
HStem: 0 21G<127 146 284 303 440 460>
VStem: 49 19<527 943> 127 19<0 416> 206 19<527 943> 284 19<0 416> 362 20<527 943> 440 20<0 416> 519 20<527 943>
CounterMasks: 2 55 2a
LayerCount: 2
Fore
SplineSet
519 527 m 257
 519 943 l 257
 539 943 l 257
 539 527 l 257
 519 527 l 257
127 0 m 257
 127 416 l 257
 146 416 l 257
 146 0 l 257
 127 0 l 257
284 0 m 257
 284 416 l 257
 303 416 l 257
 303 0 l 257
 284 0 l 257
440 0 m 257
 440 416 l 257
 460 416 l 257
 460 0 l 257
 440 0 l 257
49 527 m 257
 49 943 l 257
 68 943 l 257
 68 527 l 257
 49 527 l 257
206 527 m 257
 206 943 l 257
 225 943 l 257
 225 527 l 257
 206 527 l 257
362 527 m 257
 362 943 l 257
 382 943 l 257
 382 527 l 257
 362 527 l 257
EndSplineSet
EndChar

StartChar: u13401
Encoding: 78849 78849 10
GlifName: u13401
Width: 587
VWidth: 0
Flags: W
HStem: 0 21G<49 68 206 225 362 382 519 539>
VStem: 49 19<0 416 527 943> 206 19<0 416 527 943> 362 20<0 416 527 943> 519 20<0 416 527 943>
CounterMasks: 1 78
LayerCount: 2
Fore
SplineSet
519 527 m 257
 519 943 l 257
 539 943 l 257
 539 527 l 257
 519 527 l 257
49 0 m 257
 49 416 l 257
 68 416 l 257
 68 0 l 257
 49 0 l 257
206 0 m 257
 206 416 l 257
 225 416 l 257
 225 0 l 257
 206 0 l 257
362 0 m 257
 362 416 l 257
 382 416 l 257
 382 0 l 257
 362 0 l 257
519 0 m 257
 519 416 l 257
 539 416 l 257
 539 0 l 257
 519 0 l 257
49 527 m 257
 49 943 l 257
 68 943 l 257
 68 527 l 257
 49 527 l 257
206 527 m 257
 206 943 l 257
 225 943 l 257
 225 527 l 257
 206 527 l 257
362 527 m 257
 362 943 l 257
 382 943 l 257
 382 527 l 257
 362 527 l 257
EndSplineSet
EndChar

StartChar: u13402
Encoding: 78850 78850 11
GlifName: u13402
Width: 431
VWidth: 0
Flags: W
HStem: 982 20G<49 68 206 225 362 382>
VStem: 49 19<-34 260 337 631 708 1002> 206 19<-34 260 337 631 708 1002> 362 20<-34 260 337 631 708 1002>
CounterMasks: 1 70
LayerCount: 2
Fore
SplineSet
362 708 m 257
 362 1002 l 257
 382 1002 l 257
 382 708 l 257
 362 708 l 257
49 -34 m 257
 49 260 l 257
 68 260 l 257
 68 -34 l 257
 49 -34 l 257
206 -34 m 257
 206 260 l 257
 225 260 l 257
 225 -34 l 257
 206 -34 l 257
362 -34 m 257
 362 260 l 257
 382 260 l 257
 382 -34 l 257
 362 -34 l 257
49 337 m 257
 49 631 l 257
 68 631 l 257
 68 337 l 257
 49 337 l 257
206 337 m 257
 206 631 l 257
 225 631 l 257
 225 337 l 257
 206 337 l 257
362 337 m 257
 362 631 l 257
 382 631 l 257
 382 337 l 257
 362 337 l 257
49 708 m 257
 49 1002 l 257
 68 1002 l 257
 68 708 l 257
 49 708 l 257
206 708 m 257
 206 1002 l 257
 225 1002 l 257
 225 708 l 257
 206 708 l 257
EndSplineSet
EndChar

StartChar: u13403
Encoding: 78851 78851 12
GlifName: u13403
Width: 744
VWidth: 0
Flags: W
HStem: 0 21G<49 68 206 225 362 382 519 539 676 695>
VStem: 49 19<0 416> 206 19<0 416> 362 20<0 416> 519 20<0 416> 676 19<0 416>
CounterMasks: 1 7c
LayerCount: 2
Fore
SplineSet
519 0 m 257
 519 416 l 257
 539 416 l 257
 539 0 l 257
 519 0 l 257
49 0 m 257
 49 416 l 257
 68 416 l 257
 68 0 l 257
 49 0 l 257
206 0 m 257
 206 416 l 257
 225 416 l 257
 225 0 l 257
 206 0 l 257
362 0 m 257
 362 416 l 257
 382 416 l 257
 382 0 l 257
 362 0 l 257
676 0 m 257
 676 416 l 257
 695 416 l 257
 695 0 l 257
 676 0 l 257
EndSplineSet
EndChar

StartChar: u13404
Encoding: 78852 78852 13
GlifName: u13404
Width: 513
VWidth: 0
Flags: W
HStem: 198 19<49 464>
LayerCount: 2
Fore
SplineSet
49 217 m 257
 464 217 l 257
 464 198 l 257
 49 198 l 257
 49 217 l 257
EndSplineSet
EndChar

StartChar: u13405
Encoding: 78853 78853 14
GlifName: u13405
Width: 513
VWidth: 0
Flags: W
HStem: 115 19<49 464> 281 19<49 464>
LayerCount: 2
Fore
SplineSet
49 281 m 257
 49 300 l 257
 464 300 l 257
 464 281 l 257
 49 281 l 257
49 115 m 257
 49 134 l 257
 464 134 l 257
 464 115 l 257
 49 115 l 257
EndSplineSet
EndChar

StartChar: u13406
Encoding: 78854 78854 15
GlifName: u13406
Width: 513
VWidth: 0
Flags: W
HStem: 32 19<49 464> 198 19<49 464> 364 19<49 464>
CounterMasks: 1 e0
LayerCount: 2
Fore
SplineSet
49 364 m 257
 49 383 l 257
 464 383 l 257
 464 364 l 257
 49 364 l 257
49 32 m 257
 49 51 l 257
 464 51 l 257
 464 32 l 257
 49 32 l 257
49 198 m 257
 49 217 l 257
 464 217 l 257
 464 198 l 257
 49 198 l 257
EndSplineSet
EndChar

StartChar: u13407
Encoding: 78855 78855 16
GlifName: u13407
Width: 513
VWidth: 0
Flags: W
HStem: -51 19<49 464> 115 19<49 464> 281 19<49 464> 447 19<49 464>
CounterMasks: 1 f0
LayerCount: 2
Fore
SplineSet
49 447 m 257
 49 466 l 257
 464 466 l 257
 464 447 l 257
 49 447 l 257
49 -51 m 257
 49 -32 l 257
 464 -32 l 257
 464 -51 l 257
 49 -51 l 257
49 115 m 257
 49 134 l 257
 464 134 l 257
 464 115 l 257
 49 115 l 257
49 281 m 257
 49 300 l 257
 464 300 l 257
 464 281 l 257
 49 281 l 257
EndSplineSet
EndChar

StartChar: u13408
Encoding: 78856 78856 17
GlifName: u13408
Width: 1006
VWidth: 0
Flags: W
HStem: 32 19<49 464> 115 19<542 958> 198 19<49 464> 281 19<542 958> 364 19<49 464>
CounterMasks: 1 a8
LayerCount: 2
Fore
SplineSet
542 281 m 257
 542 300 l 257
 958 300 l 257
 958 281 l 257
 542 281 l 257
49 32 m 257
 49 51 l 257
 464 51 l 257
 464 32 l 257
 49 32 l 257
49 198 m 257
 49 217 l 257
 464 217 l 257
 464 198 l 257
 49 198 l 257
49 364 m 257
 49 383 l 257
 464 383 l 257
 464 364 l 257
 49 364 l 257
542 115 m 257
 542 134 l 257
 958 134 l 257
 958 115 l 257
 542 115 l 257
EndSplineSet
EndChar

StartChar: u13409
Encoding: 78857 78857 18
GlifName: u13409
Width: 1006
VWidth: 0
Flags: W
HStem: 32 19<49 464 542 958> 198 19<49 464 542 958> 364 19<49 464 542 958>
CounterMasks: 1 e0
LayerCount: 2
Fore
SplineSet
542 364 m 257
 542 383 l 257
 958 383 l 257
 958 364 l 257
 542 364 l 257
49 32 m 257
 49 51 l 257
 464 51 l 257
 464 32 l 257
 49 32 l 257
49 198 m 257
 49 217 l 257
 464 217 l 257
 464 198 l 257
 49 198 l 257
49 364 m 257
 49 383 l 257
 464 383 l 257
 464 364 l 257
 49 364 l 257
542 32 m 257
 542 51 l 257
 958 51 l 257
 958 32 l 257
 542 32 l 257
542 198 m 257
 542 217 l 257
 958 217 l 257
 958 198 l 257
 542 198 l 257
EndSplineSet
EndChar

StartChar: u1340A
Encoding: 78858 78858 19
GlifName: u1340A_
Width: 1006
VWidth: 0
Flags: W
HStem: -51 19<49 464> 32 19<542 958> 115 19<49 464> 198 19<542 958> 281 19<49 464> 364 19<542 958> 447 19<49 464>
CounterMasks: 2 aa 54
LayerCount: 2
Fore
SplineSet
542 364 m 257
 542 383 l 257
 958 383 l 257
 958 364 l 257
 542 364 l 257
49 -51 m 257
 49 -32 l 257
 464 -32 l 257
 464 -51 l 257
 49 -51 l 257
49 115 m 257
 49 134 l 257
 464 134 l 257
 464 115 l 257
 49 115 l 257
49 281 m 257
 49 300 l 257
 464 300 l 257
 464 281 l 257
 49 281 l 257
49 447 m 257
 49 466 l 257
 464 466 l 257
 464 447 l 257
 49 447 l 257
542 32 m 257
 542 51 l 257
 958 51 l 257
 958 32 l 257
 542 32 l 257
542 198 m 257
 542 217 l 257
 958 217 l 257
 958 198 l 257
 542 198 l 257
EndSplineSet
EndChar

StartChar: u1340B
Encoding: 78859 78859 20
GlifName: u1340B_
Width: 1006
VWidth: 0
Flags: W
HStem: -51 19<49 464 542 958> 115 19<49 464 542 958> 281 19<49 464 542 958> 447 19<49 464 542 958>
CounterMasks: 1 f0
LayerCount: 2
Fore
SplineSet
542 447 m 257
 542 466 l 257
 958 466 l 257
 958 447 l 257
 542 447 l 257
49 -51 m 257
 49 -32 l 257
 464 -32 l 257
 464 -51 l 257
 49 -51 l 257
49 115 m 257
 49 134 l 257
 464 134 l 257
 464 115 l 257
 49 115 l 257
49 281 m 257
 49 300 l 257
 464 300 l 257
 464 281 l 257
 49 281 l 257
542 -51 m 257
 542 -32 l 257
 958 -32 l 257
 958 -51 l 257
 542 -51 l 257
49 447 m 257
 49 466 l 257
 464 466 l 257
 464 447 l 257
 49 447 l 257
542 115 m 257
 542 134 l 257
 958 134 l 257
 958 115 l 257
 542 115 l 257
542 281 m 257
 542 300 l 257
 958 300 l 257
 958 281 l 257
 542 281 l 257
EndSplineSet
EndChar

StartChar: u1340C
Encoding: 78860 78860 21
GlifName: u1340C_
Width: 1500
VWidth: 0
Flags: W
HStem: 32 19<49 464 542 958 1035 1451> 198 19<49 464 542 958 1035 1451> 364 19<49 464 542 958 1035 1451>
CounterMasks: 1 e0
LayerCount: 2
Fore
SplineSet
1035 364 m 257
 1035 383 l 257
 1451 383 l 257
 1451 364 l 257
 1035 364 l 257
49 32 m 257
 49 51 l 257
 464 51 l 257
 464 32 l 257
 49 32 l 257
49 198 m 257
 49 217 l 257
 464 217 l 257
 464 198 l 257
 49 198 l 257
49 364 m 257
 49 383 l 257
 464 383 l 257
 464 364 l 257
 49 364 l 257
542 32 m 257
 542 51 l 257
 958 51 l 257
 958 32 l 257
 542 32 l 257
542 198 m 257
 542 217 l 257
 958 217 l 257
 958 198 l 257
 542 198 l 257
542 364 m 257
 542 383 l 257
 958 383 l 257
 958 364 l 257
 542 364 l 257
1035 32 m 257
 1035 51 l 257
 1451 51 l 257
 1451 32 l 257
 1035 32 l 257
1035 198 m 257
 1035 217 l 257
 1451 217 l 257
 1451 198 l 257
 1035 198 l 257
EndSplineSet
EndChar

StartChar: uni200C
Encoding: 8204 8204 23
GlifName: uni200C_
Width: 0
VWidth: 0
VStem: -21 42
LayerCount: 2
Fore
SplineSet
-21 -133 m 257
 21 -133 l 257
 21 628 l 257
 -21 628 l 257
 -21 -133 l 257
EndSplineSet
EndChar

StartChar: uni200D
Encoding: 8205 8205 24
GlifName: uni200D_
Width: 0
VWidth: 0
HStem: 515 20G<-41 -21 21 41>
LayerCount: 2
Fore
SplineSet
-21 -133 m 257
 21 -133 l 257
 21 535 l 257
 83 473 l 257
 109 500 l 257
 27 582 l 257
 109 663 l 257
 83 690 l 257
 0 607 l 257
 -83 690 l 257
 -109 663 l 257
 -27 582 l 257
 -109 500 l 257
 -83 473 l 257
 -21 535 l 257
 -21 -133 l 257
EndSplineSet
EndChar

StartChar: uni25CC
Encoding: 9676 9676 25
GlifName: uni25C_C_
Width: 1389
VWidth: 0
GlyphClass: 2
Flags: MW
LayerCount: 2
Fore
SplineSet
151.994140625 353.5 m 0
 151.994140625 375.591796875 169.903320312 393.5 191.994140625 393.5 c 0
 214.0859375 393.5 231.994140625 375.591796875 231.994140625 353.5 c 0
 231.994140625 331.408203125 214.0859375 313.5 191.994140625 313.5 c 0
 169.903320312 313.5 151.994140625 331.408203125 151.994140625 353.5 c 0
169.1171875 483.557617188 m 0
 169.1171875 505.649414062 187.025390625 523.557617188 209.1171875 523.557617188 c 0
 231.208007812 523.557617188 249.1171875 505.649414062 249.1171875 483.557617188 c 0
 249.1171875 461.466796875 231.208007812 443.557617188 209.1171875 443.557617188 c 0
 187.025390625 443.557617188 169.1171875 461.466796875 169.1171875 483.557617188 c 0
219.317382812 604.752929688 m 0
 219.317382812 626.84375 237.225585938 644.752929688 259.317382812 644.752929688 c 0
 281.409179688 644.752929688 299.317382812 626.84375 299.317382812 604.752929688 c 0
 299.317382812 582.661132812 281.409179688 564.752929688 259.317382812 564.752929688 c 0
 237.225585938 564.752929688 219.317382812 582.661132812 219.317382812 604.752929688 c 0
299.174804688 708.825195312 m 0
 299.174804688 730.916992188 317.083007812 748.825195312 339.174804688 748.825195312 c 0
 361.266601562 748.825195312 379.174804688 730.916992188 379.174804688 708.825195312 c 0
 379.174804688 686.733398438 361.266601562 668.825195312 339.174804688 668.825195312 c 0
 317.083007812 668.825195312 299.174804688 686.733398438 299.174804688 708.825195312 c 0
403.247070312 788.682617188 m 0
 403.247070312 810.774414062 421.15625 828.682617188 443.247070312 828.682617188 c 0
 465.338867188 828.682617188 483.247070312 810.774414062 483.247070312 788.682617188 c 0
 483.247070312 766.590820312 465.338867188 748.682617188 443.247070312 748.682617188 c 0
 421.15625 748.682617188 403.247070312 766.590820312 403.247070312 788.682617188 c 0
524.442382812 838.8828125 m 0
 524.442382812 860.974609375 542.350585938 878.8828125 564.442382812 878.8828125 c 0
 586.533203125 878.8828125 604.442382812 860.974609375 604.442382812 838.8828125 c 0
 604.442382812 816.791992188 586.533203125 798.8828125 564.442382812 798.8828125 c 0
 542.350585938 798.8828125 524.442382812 816.791992188 524.442382812 838.8828125 c 0
654.5 856.005859375 m 0
 654.5 878.096679688 672.408203125 896.005859375 694.5 896.005859375 c 0
 716.591796875 896.005859375 734.5 878.096679688 734.5 856.005859375 c 0
 734.5 833.9140625 716.591796875 816.005859375 694.5 816.005859375 c 0
 672.408203125 816.005859375 654.5 833.9140625 654.5 856.005859375 c 0
784.557617188 838.8828125 m 0
 784.557617188 860.974609375 802.466796875 878.8828125 824.557617188 878.8828125 c 0
 846.649414062 878.8828125 864.557617188 860.974609375 864.557617188 838.8828125 c 0
 864.557617188 816.791992188 846.649414062 798.8828125 824.557617188 798.8828125 c 0
 802.466796875 798.8828125 784.557617188 816.791992188 784.557617188 838.8828125 c 0
905.752929688 788.682617188 m 0
 905.752929688 810.774414062 923.661132812 828.682617188 945.752929688 828.682617188 c 0
 967.84375 828.682617188 985.752929688 810.774414062 985.752929688 788.682617188 c 0
 985.752929688 766.590820312 967.84375 748.682617188 945.752929688 748.682617188 c 0
 923.661132812 748.682617188 905.752929688 766.590820312 905.752929688 788.682617188 c 0
1009.82519531 708.825195312 m 0
 1009.82519531 730.916992188 1027.73339844 748.825195312 1049.82519531 748.825195312 c 0
 1071.91699219 748.825195312 1089.82519531 730.916992188 1089.82519531 708.825195312 c 0
 1089.82519531 686.733398438 1071.91699219 668.825195312 1049.82519531 668.825195312 c 0
 1027.73339844 668.825195312 1009.82519531 686.733398438 1009.82519531 708.825195312 c 0
1089.68261719 604.752929688 m 0
 1089.68261719 626.84375 1107.59082031 644.752929688 1129.68261719 644.752929688 c 0
 1151.77441406 644.752929688 1169.68261719 626.84375 1169.68261719 604.752929688 c 0
 1169.68261719 582.661132812 1151.77441406 564.752929688 1129.68261719 564.752929688 c 0
 1107.59082031 564.752929688 1089.68261719 582.661132812 1089.68261719 604.752929688 c 0
1139.8828125 483.557617188 m 0
 1139.8828125 505.649414062 1157.79199219 523.557617188 1179.8828125 523.557617188 c 0
 1201.97460938 523.557617188 1219.8828125 505.649414062 1219.8828125 483.557617188 c 0
 1219.8828125 461.466796875 1201.97460938 443.557617188 1179.8828125 443.557617188 c 0
 1157.79199219 443.557617188 1139.8828125 461.466796875 1139.8828125 483.557617188 c 0
1157.00585938 353.5 m 0
 1157.00585938 375.591796875 1174.9140625 393.5 1197.00585938 393.5 c 0
 1219.09667969 393.5 1237.00585938 375.591796875 1237.00585938 353.5 c 0
 1237.00585938 331.408203125 1219.09667969 313.5 1197.00585938 313.5 c 0
 1174.9140625 313.5 1157.00585938 331.408203125 1157.00585938 353.5 c 0
1139.8828125 223.442382812 m 0
 1139.8828125 245.533203125 1157.79199219 263.442382812 1179.8828125 263.442382812 c 0
 1201.97460938 263.442382812 1219.8828125 245.533203125 1219.8828125 223.442382812 c 0
 1219.8828125 201.350585938 1201.97460938 183.442382812 1179.8828125 183.442382812 c 0
 1157.79199219 183.442382812 1139.8828125 201.350585938 1139.8828125 223.442382812 c 0
1089.68261719 102.247070312 m 0
 1089.68261719 124.338867188 1107.59082031 142.247070312 1129.68261719 142.247070312 c 0
 1151.77441406 142.247070312 1169.68261719 124.338867188 1169.68261719 102.247070312 c 0
 1169.68261719 80.15625 1151.77441406 62.2470703125 1129.68261719 62.2470703125 c 0
 1107.59082031 62.2470703125 1089.68261719 80.15625 1089.68261719 102.247070312 c 0
169.1171875 223.442382812 m 0
 169.1171875 245.533203125 187.025390625 263.442382812 209.1171875 263.442382812 c 0
 231.208007812 263.442382812 249.1171875 245.533203125 249.1171875 223.442382812 c 0
 249.1171875 201.350585938 231.208007812 183.442382812 209.1171875 183.442382812 c 0
 187.025390625 183.442382812 169.1171875 201.350585938 169.1171875 223.442382812 c 0
219.317382812 102.247070312 m 0
 219.317382812 124.338867188 237.225585938 142.247070312 259.317382812 142.247070312 c 0
 281.409179688 142.247070312 299.317382812 124.338867188 299.317382812 102.247070312 c 0
 299.317382812 80.15625 281.409179688 62.2470703125 259.317382812 62.2470703125 c 0
 237.225585938 62.2470703125 219.317382812 80.15625 219.317382812 102.247070312 c 0
299.174804688 -1.8251953125 m 0
 299.174804688 20.2666015625 317.083007812 38.1748046875 339.174804688 38.1748046875 c 0
 361.266601562 38.1748046875 379.174804688 20.2666015625 379.174804688 -1.8251953125 c 0
 379.174804688 -23.9169921875 361.266601562 -41.8251953125 339.174804688 -41.8251953125 c 0
 317.083007812 -41.8251953125 299.174804688 -23.9169921875 299.174804688 -1.8251953125 c 0
403.247070312 -81.6826171875 m 0
 403.247070312 -59.5908203125 421.15625 -41.6826171875 443.247070312 -41.6826171875 c 0
 465.338867188 -41.6826171875 483.247070312 -59.5908203125 483.247070312 -81.6826171875 c 0
 483.247070312 -103.774414062 465.338867188 -121.682617188 443.247070312 -121.682617188 c 0
 421.15625 -121.682617188 403.247070312 -103.774414062 403.247070312 -81.6826171875 c 0
524.442382812 -131.8828125 m 0
 524.442382812 -109.791992188 542.350585938 -91.8828125 564.442382812 -91.8828125 c 0
 586.533203125 -91.8828125 604.442382812 -109.791992188 604.442382812 -131.8828125 c 0
 604.442382812 -153.974609375 586.533203125 -171.8828125 564.442382812 -171.8828125 c 0
 542.350585938 -171.8828125 524.442382812 -153.974609375 524.442382812 -131.8828125 c 0
654.5 -149.005859375 m 0
 654.5 -126.9140625 672.408203125 -109.005859375 694.5 -109.005859375 c 0
 716.591796875 -109.005859375 734.5 -126.9140625 734.5 -149.005859375 c 0
 734.5 -171.096679688 716.591796875 -189.005859375 694.5 -189.005859375 c 0
 672.408203125 -189.005859375 654.5 -171.096679688 654.5 -149.005859375 c 0
784.557617188 -131.8828125 m 0
 784.557617188 -109.791992188 802.466796875 -91.8828125 824.557617188 -91.8828125 c 0
 846.649414062 -91.8828125 864.557617188 -109.791992188 864.557617188 -131.8828125 c 0
 864.557617188 -153.974609375 846.649414062 -171.8828125 824.557617188 -171.8828125 c 0
 802.466796875 -171.8828125 784.557617188 -153.974609375 784.557617188 -131.8828125 c 0
905.752929688 -81.6826171875 m 0
 905.752929688 -59.5908203125 923.661132812 -41.6826171875 945.752929688 -41.6826171875 c 0
 967.844726562 -41.6826171875 985.752929688 -59.5908203125 985.752929688 -81.6826171875 c 0
 985.752929688 -103.774414062 967.844726562 -121.682617188 945.752929688 -121.682617188 c 0
 923.661132812 -121.682617188 905.752929688 -103.774414062 905.752929688 -81.6826171875 c 0
1009.82519531 -1.8251953125 m 0
 1009.82519531 20.2666015625 1027.73339844 38.1748046875 1049.82519531 38.1748046875 c 0
 1071.91699219 38.1748046875 1089.82519531 20.2666015625 1089.82519531 -1.8251953125 c 0
 1089.82519531 -23.9169921875 1071.91699219 -41.8251953125 1049.82519531 -41.8251953125 c 0
 1027.73339844 -41.8251953125 1009.82519531 -23.9169921875 1009.82519531 -1.8251953125 c 0
EndSplineSet
EndChar

StartChar: u13455
Encoding: 78933 78933 26
Width: 0
Flags: W
LayerCount: 2
Fore
SplineSet
-1237 967 m 1
 -1209 967 l 1
 -1340 836 l 1
 -1340 864 l 1
 -1237 967 l 1
-1047 967 m 1
 -1019 967 l 1
 -1340 646 l 1
 -1340 674 l 1
 -1047 967 l 1
-857 967 m 1
 -829 967 l 1
 -1340 456 l 1
 -1340 484 l 1
 -857 967 l 1
-667 967 m 1
 -639 967 l 1
 -1340 266 l 1
 -1340 294 l 1
 -667 967 l 1
-477 967 m 1
 -449 967 l 1
 -1340 76 l 1
 -1340 104 l 1
 -477 967 l 1
-287 967 m 1
 -259 967 l 1
 -1340 -114 l 1
 -1340 -86 l 1
 -287 967 l 1
-97 967 m 1
 -69 967 l 1
 -1296 -260 l 1
 -1324 -260 l 1
 -97 967 l 1
-49 825 m 1
 -49 797 l 1
 -1106 -260 l 1
 -1134 -260 l 1
 -49 825 l 1
-49 635 m 1
 -49 607 l 1
 -916 -260 l 1
 -944 -260 l 1
 -49 635 l 1
-49 445 m 1
 -49 417 l 1
 -726 -260 l 1
 -754 -260 l 1
 -49 445 l 1
-49 255 m 1
 -49 227 l 1
 -536 -260 l 1
 -564 -260 l 1
 -49 255 l 1
-49 65 m 1
 -49 37 l 1
 -346 -260 l 1
 -374 -260 l 1
 -49 65 l 1
-49 -125 m 1
 -49 -153 l 1
 -156 -260 l 1
 -184 -260 l 1
 -49 -125 l 1
EndSplineSet
EndChar
